<?xml version="1.0" encoding="UTF-8"?>
<!DOCTYPE svg PUBLIC "-//W3C//DTD SVG 1.1//EN" "http://www.w3.org/Graphics/SVG/1.1/DTD/svg11.dtd">
<svg xmlns="http://www.w3.org/2000/svg" xmlns:xlink="http://www.w3.org/1999/xlink" version="1.1" width="1600px" height="2000px" viewBox="-0.5 -0.5 1600 2000" content="&lt;mxfile host=&quot;Electron&quot; modified=&quot;2025-12-05T20:55:57.000Z&quot; agent=&quot;5.0&quot; version=&quot;24.0.0&quot; type=&quot;device&quot;&gt;&lt;diagram id=&quot;MAAS_Workflow_V2&quot; name=&quot;MAAS Workflow V2&quot;&gt;7V1dd6I4EP01PuwchEDw8bHdmT17e+bs7j7tkyoQZdsdIxLwR/bXbyIg4iOKrRwnO0/OGI0I4d6qulWpSkRU08v70F/OfqIBilaWE16sxNuR5fiux/8Lgscs4Dp+FpjEYZiFSkfA3fkXEkFHQDdhgNa1hhmhURYuu8EAzRcpyGoxllKatJuNaVS/65JNUCtgbzCpHA3C8CmL+tfOiP8ThZOZvLMlTixY1rgIrGcsJEklSPZu6K4ooVl2ND1coUjAJ+G4Gjb+K8hM0Ty7/OF1z2+Y/I4u/+e39/ju83++z0ly//69uP2si26j/ee3q+vb/K7l46+4SeMNan/YP3/J0LxlSYNC/nRxnBL6RfxZ9tH/KB+P0mBeK634edlfsrSTFzXfyZbz096FGDUhXhbcLuNr8KNMzixCfhSRFam/0RFXvKPfjP8zvpAklQ/XE9qnedvWB8ovRzREgbiJv5I0RykaoYQklbLrcC6air/so/xb/nkd+0UMuTiFVILDe+z/iV4P7j0fd9sdLtD33+PHn3THhpZ3jsvif1uJP7//ffX5dlv54bt/8P1h75+8mhbyiBtxbrRCK8slaRW3KYC532AMO41iJs9YQLNqUO2eZKnE3hqaVUe0ysQbFK4Q5R0zxNbiM4x/2jxjD/rdv5Ib/pCfVse3//Vv+Le3aYz+4sftu89frq/Ly5E8PcVRRsVQsubfM/d8L3uX0j8v+6o6HEfSZj2cjvY8QK0DnpKQEytkjiP8hp6ypBURfhnNwjlZsOjdMToumDoavkqAK9+Gnln05A8oyx4FR7ZZkQYrsB7E+4M2neRPhuvgP/9/n2eXP//1X/5fX/68HmTcZXhJxczzB33yBatfgrNgKnAzCZVeKG5HH1bHjX//eajGrMnxJ3ScdZN6wGwG+5rg2VU0qg1dTnKkWSdMneQw77TJm2QPmzdpg3/cPO7+Ed2J6ZtT8Pitftc/H4/H4ucLqdcZLJqVj4QfnB+Q8g0aUr6FIsnOKXJT/vPLP/64yh6iH9/iX1/zZ/78ufe579mgRqW/KtTov+Infvb9+e3+8efb3b//cT+9m/nx+3H145cP32eXH35/uf9YWBcdQNdZg1xngKobnbCWXGcyDbjOh/D7519uH48/fCgOv8ffxX/z491Xcfd7K/jzjblzsbLuumEjzSpHxYPS+v+HHz/jlKw1vjPJEiqTGvryvksuomUm2F2s4YalE5QJLPCfE95ZivRseK8P7J7C+f+hP+7WqP876v+WtXz/x6nE818s/RP2/0GWB1cpvm3JfyMEuQ4NCgT1jaCgnvPPEQgCEb8JQV/if/5cksD9P2//9X6xuju/v7W9d7D88E/gnAb/14eVcy6TZc4PqmOL4JNykLiEhPv92P/x1jv9+ur1z8fw692ng//h/uv9f7/8nX16//Xz7UtX9ldf/dHDf9///O3VV3908/X+28lvsHz6env/6fb55+ffff/l+r/az7f2vz8z2D9+vH3q9/3TXcfvny6+odV3/fpeXN+Pr/7Pwa8+1/f9rd+/8jf0vxfe/3P5Cv0fWb/+vxj/Wb5/5I8ANXhN7jribLeh/cfi3Snu7eP7f/zT8cOr4/v94Y+fX7L0n3f3f93/xy084faP/37/9Cv4+uXp5wf+bPf376d/G9/y+L/yN8f/6f/q/4PHcW/N+T8/7v8P/+fDz6ub+3++8p+3uPdxd9MvnxuI3X/6z933T99OEfbjH//++8/Pn/6PG9z9+fZ197/+f1T+HeGX1/PNf6v/9fC99/968Pz6T/2vr45fvvsQ9oP/D355/NvLt79v3pN9u/gXfN/0P/F9u379mH9P9nWzsfzw+r5dvv8fvu/8v1++bnZfvD/v/+efh/98+fn4n1c/9i/lf/Se/Zn/xf/t/gP/YnvA/8PH3e+v3v+XPhV/r+df/U/8F/vv1//18bdfv//ncVrfy1f3/57+x1/T//nyysW/43/Bf/P/cv/74y/P/37369vff3/d34n/x//uf97/3P/t/776f/z9fa7/17/Y/37743/Zf77836dPn/4f&lt;/diagram&gt;&lt;/mxfile&gt;">
  <defs>
    <!-- Drop Shadow Filter -->
    <filter id="shadow" x="-20%" y="-20%" width="140%" height="140%">
      <feGaussianBlur in="SourceAlpha" stdDeviation="3" result="blur"/>
      <feOffset in="blur" dx="2" dy="4" result="offsetBlur"/>
      <feFlood flood-color="rgba(0,0,0,0.15)" result="color"/>
      <feComposite in="color" in2="offsetBlur" operator="in" result="shadow"/>
      <feComposite in="SourceGraphic" in2="shadow" operator="over"/>
    </filter>
    
    <!-- Gradients -->
    <linearGradient id="headerGrad" x1="0%" y1="0%" x2="100%" y2="0%">
        <stop offset="0%" style="stop-color:#1e3a8a;stop-opacity:1" />
        <stop offset="100%" style="stop-color:#3b82f6;stop-opacity:1" />
    </linearGradient>
    
    <linearGradient id="stage1Grad" x1="0%" y1="0%" x2="0%" y2="100%">
        <stop offset="0%" style="stop-color:#eff6ff;stop-opacity:1" />
        <stop offset="100%" style="stop-color:#dbeafe;stop-opacity:1" />
    </linearGradient>
    <linearGradient id="stage2Grad" x1="0%" y1="0%" x2="0%" y2="100%">
        <stop offset="0%" style="stop-color:#f0fdf4;stop-opacity:1" />
        <stop offset="100%" style="stop-color:#dcfce7;stop-opacity:1" />
    </linearGradient>
    <linearGradient id="stage3Grad" x1="0%" y1="0%" x2="0%" y2="100%">
        <stop offset="0%" style="stop-color:#fefce8;stop-opacity:1" />
        <stop offset="100%" style="stop-color:#fef9c3;stop-opacity:1" />
    </linearGradient>
    <linearGradient id="stage4Grad" x1="0%" y1="0%" x2="0%" y2="100%">
        <stop offset="0%" style="stop-color:#faf5ff;stop-opacity:1" />
        <stop offset="100%" style="stop-color:#f3e8ff;stop-opacity:1" />
    </linearGradient>
    <linearGradient id="stage5Grad" x1="0%" y1="0%" x2="0%" y2="100%">
        <stop offset="0%" style="stop-color:#fff1f2;stop-opacity:1" />
        <stop offset="100%" style="stop-color:#ffe4e6;stop-opacity:1" />
    </linearGradient>
    <linearGradient id="stage6Grad" x1="0%" y1="0%" x2="0%" y2="100%">
        <stop offset="0%" style="stop-color:#fff7ed;stop-opacity:1" />
        <stop offset="100%" style="stop-color:#ffedd5;stop-opacity:1" />
    </linearGradient>
    <linearGradient id="stage7Grad" x1="0%" y1="0%" x2="0%" y2="100%">
        <stop offset="0%" style="stop-color:#ecfdf5;stop-opacity:1" />
        <stop offset="100%" style="stop-color:#d1fae5;stop-opacity:1" />
    </linearGradient>
  </defs>

  <g font-family="Segoe UI, Helvetica, Arial, sans-serif">
    <!-- Header Banner -->
    <rect x="0" y="0" width="1600" height="100" fill="url(#headerGrad)" stroke="none"/>
    <text x="800" y="60" fill="#ffffff" font-size="36px" text-anchor="middle" font-weight="700" letter-spacing="1px">MAAS: Complete Workflow Overview &amp; Architecture</text>
    
    <!-- Left Column: User Workflow -->
    <text x="215" y="160" fill="#334155" font-size="24px" font-weight="bold" text-anchor="middle">MOM'S JOURNEY</text>
    
    <!-- Stage 1 -->
    <rect x="50" y="200" width="330" height="140" rx="16" ry="16" fill="url(#stage1Grad)" stroke="#3b82f6" stroke-width="2" filter="url(#shadow)"/>
    <text x="80" y="240" fill="#1e40af" font-size="20px" font-weight="bold">1. LAUNCH 🚀</text>
    <text x="80" y="275" fill="#334155" font-size="16px">User Action:</text>
    <text x="80" y="300" fill="#0f172a" font-size="18px" font-weight="500">• Double-click Icon</text>
    <text x="80" y="325" fill="#64748b" font-size="14px">App opens in 3-5s</text>

    <!-- Arrow -->
    <path d="M 215 340 L 215 385" stroke="#94a3b8" stroke-width="3" stroke-dasharray="8 4"/>
    <polygon points="215,395 210,385 220,385" fill="#94a3b8"/>

    <!-- Stage 2 -->
    <rect x="50" y="400" width="330" height="150" rx="16" ry="16" fill="url(#stage2Grad)" stroke="#22c55e" stroke-width="2" filter="url(#shadow)"/>
    <text x="80" y="440" fill="#15803d" font-size="20px" font-weight="bold">2. UPLOAD &amp; PREVIEW 📄</text>
    <text x="80" y="475" fill="#334155" font-size="16px">User Action:</text>
    <text x="80" y="500" fill="#0f172a" font-size="18px" font-weight="500">• Drag &amp; Drop PDF</text>
    <text x="80" y="525" fill="#64748b" font-size="14px">Instant local preview (FREE)</text>

     <!-- Arrow -->
    <path d="M 215 550 L 215 595" stroke="#94a3b8" stroke-width="3" stroke-dasharray="8 4"/>
    <polygon points="215,605 210,595 220,595" fill="#94a3b8"/>

    <!-- Stage 3 -->
    <rect x="50" y="610" width="330" height="150" rx="16" ry="16" fill="url(#stage3Grad)" stroke="#eab308" stroke-width="2" filter="url(#shadow)"/>
    <text x="80" y="650" fill="#a16207" font-size="20px" font-weight="bold">3. AI EXTRACTION 🤖</text>
    <text x="80" y="685" fill="#334155" font-size="16px">System Process:</text>
    <text x="80" y="710" fill="#0f172a" font-size="18px" font-weight="500">• Gemini API Call</text>
    <text x="80" y="735" fill="#64748b" font-size="14px">Cost: $0.01-0.05 | Time: 2-8s</text>

     <!-- Arrow -->
    <path d="M 215 760 L 215 805" stroke="#94a3b8" stroke-width="3" stroke-dasharray="8 4"/>
    <polygon points="215,815 210,805 220,805" fill="#94a3b8"/>

    <!-- Stage 4 -->
    <rect x="50" y="820" width="330" height="150" rx="16" ry="16" fill="url(#stage4Grad)" stroke="#a855f7" stroke-width="2" filter="url(#shadow)"/>
    <text x="80" y="860" fill="#7e22ce" font-size="20px" font-weight="bold">4. REVIEW &amp; EDIT 📝</text>
    <text x="80" y="895" fill="#334155" font-size="16px">User Action:</text>
    <text x="80" y="920" fill="#0f172a" font-size="18px" font-weight="500">• Verify &amp; Correct</text>
    <text x="80" y="945" fill="#64748b" font-size="14px">Split view: PDF vs Data</text>

     <!-- Arrow -->
    <path d="M 215 970 L 215 1015" stroke="#94a3b8" stroke-width="3" stroke-dasharray="8 4"/>
    <polygon points="215,1025 210,1015 220,1015" fill="#94a3b8"/>

    <!-- Stage 5 -->
    <rect x="50" y="1030" width="330" height="150" rx="16" ry="16" fill="url(#stage5Grad)" stroke="#ef4444" stroke-width="2" filter="url(#shadow)"/>
    <text x="80" y="1070" fill="#b91c1c" font-size="20px" font-weight="bold">5. SUBMIT &amp; STORE 💾</text>
    <text x="80" y="1105" fill="#334155" font-size="16px">System Process:</text>
    <text x="80" y="1130" fill="#0f172a" font-size="18px" font-weight="500">• Save to SQLite</text>
    <text x="80" y="1155" fill="#64748b" font-size="14px">Generate Invoice ID</text>

     <!-- Arrow -->
    <path d="M 215 1180 L 215 1225" stroke="#94a3b8" stroke-width="3" stroke-dasharray="8 4"/>
    <polygon points="215,1235 210,1225 220,1225" fill="#94a3b8"/>

    <!-- Stage 6 -->
    <rect x="50" y="1240" width="330" height="160" rx="16" ry="16" fill="url(#stage6Grad)" stroke="#f97316" stroke-width="2" filter="url(#shadow)"/>
    <text x="80" y="1280" fill="#c2410c" font-size="20px" font-weight="bold">6. ACSOFT AUTOMATION ⚙️</text>
    <text x="80" y="1315" fill="#334155" font-size="16px">Hybrid Process:</text>
    <text x="80" y="1340" fill="#0f172a" font-size="18px" font-weight="500">• Auto-fill Form</text>
    <text x="80" y="1365" fill="#0f172a" font-size="18px" font-weight="500">• MOM MANUALLY SAVES</text>
    <text x="80" y="1390" fill="#64748b" font-size="14px">Safety first approach</text>

     <!-- Arrow -->
    <path d="M 215 1400 L 215 1445" stroke="#94a3b8" stroke-width="3" stroke-dasharray="8 4"/>
    <polygon points="215,1455 210,1445 220,1445" fill="#94a3b8"/>

    <!-- Stage 7 -->
    <rect x="50" y="1460" width="330" height="140" rx="16" ry="16" fill="url(#stage7Grad)" stroke="#10b981" stroke-width="2" filter="url(#shadow)"/>
    <text x="80" y="1500" fill="#047857" font-size="20px" font-weight="bold">7. COMPLETE ✅</text>
    <text x="80" y="1535" fill="#334155" font-size="16px">Outcome:</text>
    <text x="80" y="1560" fill="#0f172a" font-size="18px" font-weight="500">• Stats Updated</text>
    <text x="80" y="1585" fill="#64748b" font-size="14px">Process next invoice</text>


    <!-- RIGHT COLUMN: System Architecture -->
    <rect x="500" y="120" width="1050" height="1750" fill="#f8fafc" stroke="#e2e8f0" rx="20" ry="20" />
    <text x="1025" y="180" fill="#334155" font-size="28px" font-weight="bold" text-anchor="middle">SYSTEM ARCHITECTURE</text>

    <!-- Frontend Layer -->
    <rect x="550" y="240" width="950" height="200" rx="12" ry="12" fill="#ffffff" stroke="#cbd5e1" stroke-width="2" filter="url(#shadow)"/>
    <rect x="550" y="240" width="10" height="200" rx="2" ry="2" fill="#3b82f6"/>
    <text x="580" y="280" fill="#1e40af" font-size="22px" font-weight="bold">PRESENTATION LAYER (Frontend)</text>
    <text x="580" y="310" fill="#475569" font-size="16px">Vue.js Application</text>
    
    <g transform="translate(580, 340)">
        <rect x="0" y="0" width="200" height="60" rx="8" ry="8" fill="#eff6ff" stroke="#bfdbfe"/>
        <text x="100" y="35" text-anchor="middle" fill="#1e3a8a" font-size="14px" font-weight="bold">Upload UI</text>
        
        <rect x="220" y="0" width="200" height="60" rx="8" ry="8" fill="#eff6ff" stroke="#bfdbfe"/>
        <text x="320" y="35" text-anchor="middle" fill="#1e3a8a" font-size="14px" font-weight="bold">PDF Preview</text>
        
        <rect x="440" y="0" width="200" height="60" rx="8" ry="8" fill="#eff6ff" stroke="#bfdbfe"/>
        <text x="540" y="35" text-anchor="middle" fill="#1e3a8a" font-size="14px" font-weight="bold">Data Editor</text>
        
        <rect x="660" y="0" width="200" height="60" rx="8" ry="8" fill="#eff6ff" stroke="#bfdbfe"/>
        <text x="760" y="35" text-anchor="middle" fill="#1e3a8a" font-size="14px" font-weight="bold">Status Board</text>
    </g>

    <!-- Arrow Down -->
    <path d="M 1025 440 L 1025 490" stroke="#64748b" stroke-width="2"/>
    <polygon points="1025,500 1020,490 1030,490" fill="#64748b"/>
    <text x="1035" y="475" fill="#64748b" font-size="12px">REST API</text>

    <!-- Backend Layer -->
    <rect x="550" y="500" width="950" height="320" rx="12" ry="12" fill="#ffffff" stroke="#cbd5e1" stroke-width="2" filter="url(#shadow)"/>
    <rect x="550" y="500" width="10" height="320" rx="2" ry="2" fill="#22c55e"/>
    <text x="580" y="540" fill="#166534" font-size="22px" font-weight="bold">APPLICATION LAYER (Backend)</text>
    <text x="580" y="570" fill="#475569" font-size="16px">FastAPI + Python Services</text>

    <g transform="translate(580, 600)">
        <rect x="0" y="0" width="900" height="50" rx="8" ry="8" fill="#f0fdf4" stroke="#bbf7d0"/>
        <text x="450" y="30" text-anchor="middle" fill="#15803d" font-size="16px" font-weight="bold">API Router / Endpoints</text>
        
        <g transform="translate(0, 70)">
             <rect x="0" y="0" width="160" height="100" rx="8" ry="8" fill="#dcfce7" stroke="#86efac"/>
             <text x="80" y="45" text-anchor="middle" fill="#14532d" font-size="14px" font-weight="bold">Preview</text>
             <text x="80" y="65" text-anchor="middle" fill="#14532d" font-size="12px">Service</text>

             <rect x="180" y="0" width="160" height="100" rx="8" ry="8" fill="#dcfce7" stroke="#86efac"/>
             <text x="260" y="45" text-anchor="middle" fill="#14532d" font-size="14px" font-weight="bold">Gemini</text>
             <text x="260" y="65" text-anchor="middle" fill="#14532d" font-size="12px">Extraction</text>

             <rect x="360" y="0" width="160" height="100" rx="8" ry="8" fill="#dcfce7" stroke="#86efac"/>
             <text x="440" y="45" text-anchor="middle" fill="#14532d" font-size="14px" font-weight="bold">Validation</text>
             <text x="440" y="65" text-anchor="middle" fill="#14532d" font-size="12px">Logic</text>

             <rect x="540" y="0" width="160" height="100" rx="8" ry="8" fill="#dcfce7" stroke="#86efac"/>
             <text x="620" y="45" text-anchor="middle" fill="#14532d" font-size="14px" font-weight="bold">Automation</text>
             <text x="620" y="65" text-anchor="middle" fill="#14532d" font-size="12px">Orchestrator</text>
             
             <rect x="720" y="0" width="160" height="100" rx="8" ry="8" fill="#dcfce7" stroke="#86efac"/>
             <text x="800" y="45" text-anchor="middle" fill="#14532d" font-size="14px" font-weight="bold">Audit</text>
             <text x="800" y="65" text-anchor="middle" fill="#14532d" font-size="12px">Service</text>
        </g>
    </g>

    <!-- Connections below backend -->
    <path d="M 800 820 L 800 870" stroke="#64748b" stroke-width="2"/>
    <polygon points="800,880 795,870 805,870" fill="#64748b"/>

    <path d="M 1025 820 L 1025 870" stroke="#64748b" stroke-width="2"/>
    <polygon points="1025,880 1020,870 1030,870" fill="#64748b"/>

    <path d="M 1250 820 L 1250 870" stroke="#64748b" stroke-width="2"/>
    <polygon points="1250,880 1245,870 1255,870" fill="#64748b"/>

    <!-- Bottom Services Row -->
    
    <!-- External Services -->
    <rect x="550" y="880" width="300" height="160" rx="12" ry="12" fill="#ffffff" stroke="#cbd5e1" stroke-width="2" filter="url(#shadow)"/>
    <rect x="550" y="880" width="10" height="160" rx="2" ry="2" fill="#eab308"/>
    <text x="580" y="920" fill="#a16207" font-size="18px" font-weight="bold">EXTERNAL API</text>
    <rect x="580" y="940" width="220" height="60" rx="8" ry="8" fill="#fefce8" stroke="#fde047"/>
    <text x="690" y="975" text-anchor="middle" fill="#854d0e" font-size="16px" font-weight="bold">Gemini 2.0 Flash</text>
    <text x="690" y="1020" text-anchor="middle" fill="#64748b" font-size="12px">Low-cost extraction</text>

    <!-- Data Layer -->
    <rect x="875" y="880" width="300" height="160" rx="12" ry="12" fill="#ffffff" stroke="#cbd5e1" stroke-width="2" filter="url(#shadow)"/>
    <rect x="875" y="880" width="10" height="160" rx="2" ry="2" fill="#ef4444"/>
    <text x="905" y="920" fill="#b91c1c" font-size="18px" font-weight="bold">DATA LAYER</text>
    <rect x="905" y="940" width="220" height="60" rx="8" ry="8" fill="#fee2e2" stroke="#fca5a5"/>
    <text x="1015" y="975" text-anchor="middle" fill="#991b1b" font-size="16px" font-weight="bold">SQLite DB</text>
    <text x="1015" y="1020" text-anchor="middle" fill="#64748b" font-size="12px">Local secure storage</text>

    <!-- Automation Layer -->
    <rect x="1200" y="880" width="300" height="160" rx="12" ry="12" fill="#ffffff" stroke="#cbd5e1" stroke-width="2" filter="url(#shadow)"/>
    <rect x="1200" y="880" width="10" height="160" rx="2" ry="2" fill="#f97316"/>
    <text x="1230" y="920" fill="#c2410c" font-size="18px" font-weight="bold">AUTOMATION LAYER</text>
    <rect x="1230" y="940" width="220" height="60" rx="8" ry="8" fill="#ffedd5" stroke="#fdba74"/>
    <text x="1340" y="975" text-anchor="middle" fill="#9a3412" font-size="16px" font-weight="bold">PyWinAuto</text>
    <text x="1340" y="1020" text-anchor="middle" fill="#64748b" font-size="12px">Desktop Control</text>

    <!-- Information Sections below Arch -->
    
    <!-- Design Principles -->
    <rect x="550" y="1100" width="950" height="180" rx="12" ry="12" fill="#f1f5f9" stroke="#cbd5e1" stroke-width="1"/>
    <text x="580" y="1140" fill="#334155" font-size="22px" font-weight="bold">Core Design Principles 🎯</text>
    
    <g transform="translate(580, 1160)">
        <text x="0" y="30" fill="#0f172a" font-size="16px" font-weight="bold">1. Human-in-the-Loop:</text>
        <text x="200" y="30" fill="#475569" font-size="16px">User verification at every key step (Extraction, Save, Automation).</text>

        <text x="0" y="60" fill="#0f172a" font-size="16px" font-weight="bold">2. Cost Optimization:</text>
        <text x="200" y="60" fill="#475569" font-size="16px">Preview first (free). AI is only called when user intends to extract.</text>

        <text x="0" y="90" fill="#0f172a" font-size="16px" font-weight="bold">3. Safety First:</text>
        <text x="200" y="90" fill="#475569" font-size="16px">No auto-save in Accounting software. Manual confirmation required.</text>
    </g>

    <!-- Error Handling -->
    <rect x="550" y="1320" width="950" height="180" rx="12" ry="12" fill="#fff1f2" stroke="#fecdd3" stroke-width="1"/>
    <text x="580" y="1360" fill="#be123c" font-size="22px" font-weight="bold">Resilient Error Handling 🛡️</text>
    
    <g transform="translate(580, 1380)">
        <text x="0" y="30" fill="#9f1239" font-size="16px" font-weight="bold">⚠️ Extract Fail:</text>
        <text x="150" y="30" fill="#881337" font-size="16px">Retry logic -> Manual entry mode fallback.</text>

        <text x="0" y="60" fill="#9f1239" font-size="16px" font-weight="bold">⚠️ Auto Fail:</text>
        <text x="150" y="60" fill="#881337" font-size="16px">Pause automation -> Show user manual copy/paste guide.</text>

        <text x="0" y="90" fill="#9f1239" font-size="16px" font-weight="bold">⚠️ Low Conf:</text>
        <text x="150" y="90" fill="#881337" font-size="16px">Flag for mandatory review. Disable automation until fixed.</text>
    </g>

     <!-- Performance Goals -->
    <rect x="550" y="1540" width="950" height="130" rx="12" ry="12" fill="#f0f9ff" stroke="#bae6fd" stroke-width="1"/>
    <text x="580" y="1580" fill="#0369a1" font-size="22px" font-weight="bold">Performance Targets ⚡</text>
    
    <g transform="translate(580, 1600)" fill="#075985" font-size="16px">
         <text x="0" y="40">Preview: &lt; 1s</text>
         <text x="200" y="40">AI Extract: &lt; 8s</text>
         <text x="400" y="40">Automation: &lt; 60s</text>
         <text x="600" y="40" font-weight="bold">Result: 90% Time Saved</text>
    </g>

  </g>
  
  <!-- Footer -->
  <rect x="0" y="1900" width="1600" height="100" fill="#1e293b" />
  <text x="800" y="1955" text-anchor="middle" fill="#94a3b8" font-family="sans-serif" font-size="16px">
    MAAS - Mom's Accounting Automation System | Design Document V2.0 | December 2025
  </text>
</svg>
